<svg width="80" height="20" viewBox="0 0 80 20" fill="none" xmlns="http://www.w3.org/2000/svg">
<g clip-path="url(#clip0_11090_5251)">
<path d="M39.0148 5.65409C37.3895 5.65409 35.7876 6.35169 34.5647 7.72321V0.959717H32.1445V12.3465C32.1445 12.3468 32.1445 12.347 32.1445 12.3473C32.1445 16.0439 35.1418 19.0405 38.8391 19.0405C42.5364 19.0405 45.5336 16.0439 45.5336 12.3473C45.5336 8.65081 42.712 5.65409 39.0148 5.65409ZM38.8391 16.4625C36.5658 16.4625 34.723 14.6201 34.723 12.3473C34.723 10.0745 36.5658 8.23201 38.8391 8.23201C41.1124 8.23201 42.9552 10.0745 42.9552 12.3473C42.9552 14.6201 41.1124 16.4625 38.8391 16.4625Z" fill="#121212"/>
<path d="M54.0089 5.65409C52.3836 5.65409 50.7818 6.35169 49.5588 7.72321V0.959717H47.1387V12.3465C47.1387 12.3468 47.1387 12.347 47.1387 12.3473C47.1387 16.0439 50.1359 19.0405 53.8332 19.0405C57.5305 19.0405 60.5278 16.0439 60.5278 12.3473C60.5278 8.65081 57.7061 5.65409 54.0089 5.65409ZM53.8332 16.4625C51.56 16.4625 49.7171 14.6201 49.7171 12.3473C49.7171 10.0745 51.56 8.23201 53.8332 8.23201C56.1065 8.23201 57.9493 10.0745 57.9493 12.3473C57.9493 14.6201 56.1065 16.4625 53.8332 16.4625Z" fill="#121212"/>
<path d="M18.5273 13.5196V6.01709H21.1231V13.4961C21.1231 15.4071 22.2322 16.634 24.0965 16.634C25.9843 16.634 27.0698 15.4543 27.0698 13.4961V6.01709H29.6892V13.5196C29.6892 16.9878 27.589 19.0404 24.0965 19.0404C20.6983 19.0404 18.5273 16.9171 18.5273 13.5196Z" fill="#121212"/>
<path d="M65.212 0.959717H62.6162V18.7338H65.212V0.959717Z" fill="#121212"/>
<path d="M79.9052 13.3783H69.9704C70.348 15.3601 71.7403 16.7049 74.1945 16.7049C75.634 16.7049 77.3802 16.1622 78.5129 15.3365L79.5985 17.2475C78.3005 18.2148 76.2476 19.017 74.1001 19.017C69.3333 19.017 67.2803 15.6903 67.2803 12.3402C67.2803 10.4291 67.8702 8.84833 69.0738 7.59786C70.2772 6.34744 71.8584 5.71045 73.7697 5.71045C75.5867 5.71045 77.097 6.2767 78.2533 7.43269C79.4097 8.58878 79.9995 10.1459 79.9995 12.1277C79.9995 12.4817 79.9759 12.9064 79.9052 13.3783ZM69.9704 11.2548H77.3802C77.1679 9.24941 75.6812 7.95184 73.7697 7.95184C71.811 7.95184 70.348 9.27301 69.9704 11.2548Z" fill="#121212"/>
<path d="M10.2853 5.65409C8.66001 5.65409 7.05812 6.35169 5.83516 7.72321V0.959717H3.41504V12.3465C3.41504 12.3468 3.41504 12.347 3.41504 12.3473C3.41504 16.0439 6.41228 19.0405 10.1096 19.0405C13.8069 19.0405 16.8042 16.0439 16.8042 12.3473C16.8042 8.65081 13.9826 5.65409 10.2853 5.65409ZM10.1096 16.4625C7.83634 16.4625 5.99349 14.6201 5.99349 12.3473C5.99349 10.0745 7.83634 8.23201 10.1096 8.23201C12.3828 8.23201 14.2257 10.0745 14.2257 12.3473C14.2257 14.6201 12.3828 16.4625 10.1096 16.4625Z" fill="#121212"/>
<path d="M1.65546 15.7302C0.741149 15.7302 0 16.4713 0 17.3853C0 18.2994 0.741149 19.0405 1.65546 19.0405C2.56977 19.0405 3.31092 18.2994 3.31092 17.3853C3.31092 16.4713 2.56977 15.7302 1.65546 15.7302Z" fill="#0947D7"/>
</g>
<defs>
<clipPath id="clip0_11090_5251">
<rect width="80" height="18.0808" fill="white" transform="translate(0 0.959717)"/>
</clipPath>
</defs>
</svg>
