<svg width="195" height="50" viewBox="0 0 195 50" fill="none" xmlns="http://www.w3.org/2000/svg" class="h-6 w-auto"><path fill-rule="evenodd" clip-rule="evenodd" d="M10 0C4.47715 0 0 4.47715 0 10V40C0 45.5228 4.47715 50 10 50H40C45.5228 50 50 45.5228 50 40V10C50 4.47715 45.5228 0 40 0H10ZM37.7142 14.881L40 11.6667H10L12.286 14.881H23.2669L23.2429 40.6822L24.8753 42.8251L26.5078 40.6822L26.5318 14.881H37.7142ZM19.435 35.2381L22.1557 38.4524V15.9524H13.0483L14.9534 18.631L19.4466 18.631L19.435 35.2381ZM27.5971 38.4524L30.3072 35.2381V18.631H35.0472L36.9522 15.9524H27.5971V38.4524Z" fill="white"></path><path d="M72.496 39.5V14.736H63.312V10.8H85.985V14.736H76.801V39.5H72.496Z" fill="white"></path><path d="M95.5617 39.869C89.0837 39.869 84.8607 35.113 84.8607 28.963C84.8607 22.731 89.1247 18.016 95.5207 18.016C101.712 18.016 105.607 22.895 105.607 28.471V30.398H89.0017C89.5347 34.416 92.2407 36.179 95.5617 36.179C98.9237 36.179 101.097 34.129 101.753 32.284L104.91 33.965C104.008 36.302 101.138 39.869 95.5617 39.869ZM89.1247 26.954H101.343C101.302 24.33 99.0877 21.624 95.4797 21.624C92.3637 21.624 89.8217 23.469 89.1247 26.954Z" fill="white"></path><path d="M109.909 39.5V18.385H114.009V21.05C114.993 19.205 117.207 18.016 119.749 18.016C122.578 18.016 124.874 19.328 126.268 21.296C127.334 19.902 129.425 18.016 133.033 18.016C137.912 18.016 141.356 21.542 141.356 25.97V39.5H137.256V26.954C137.256 23.797 135.247 21.87 132.5 21.87C129.671 21.87 127.662 23.961 127.662 26.954V39.5H123.562V26.954C123.562 23.797 121.594 21.87 118.806 21.87C115.977 21.87 114.009 23.961 114.009 26.954V39.5H109.909Z" fill="white"></path><path d="M146.266 48.889V18.385H150.366V21.091C151.719 19.287 154.261 18.016 157.418 18.016C163.158 18.016 167.709 22.116 167.709 28.963C167.709 35.318 163.24 39.869 157.418 39.869C154.261 39.869 151.596 38.516 150.366 36.712V48.889H146.266ZM150.284 28.963C150.284 32.817 152.826 36.056 156.926 36.056C161.026 36.056 163.568 32.858 163.568 28.963C163.568 25.027 161.026 21.829 156.926 21.829C152.826 21.829 150.284 25.068 150.284 28.963Z" fill="white"></path><path d="M182.118 39.869C175.64 39.869 171.007 35.277 171.007 28.963C171.007 22.649 175.681 18.016 182.118 18.016C188.555 18.016 193.229 22.649 193.229 28.963C193.229 35.236 188.596 39.869 182.118 39.869ZM175.148 28.963C175.148 33.145 178.223 36.097 182.118 36.097C186.054 36.097 189.088 33.145 189.088 28.963C189.088 24.781 186.054 21.829 182.118 21.829C178.182 21.829 175.148 24.781 175.148 28.963Z" fill="white"></path></svg>