<svg width="131" height="24" viewBox="0 0 131 24" fill="none" xmlns="http://www.w3.org/2000/svg">
<path fill-rule="evenodd" clip-rule="evenodd" d="M13.7021 3.50152C13.4559 3.2545 13.0569 3.2545 12.8108 3.50153L4.78887 11.5526C4.54274 11.7997 4.54274 12.2002 4.78887 12.4472L12.8108 20.4983C13.0569 20.7453 13.4559 20.7453 13.7021 20.4983L21.724 12.4472C21.9701 12.2002 21.9701 11.7997 21.724 11.5526L13.7021 3.50152ZM14.1477 0.370542C13.6555 -0.123514 12.8574 -0.123514 12.3651 0.370542L1.66925 11.1053C1.17698 11.5994 1.17698 12.4004 1.66925 12.8945L12.3651 23.6293C12.8574 24.1233 13.6555 24.1233 14.1477 23.6293L24.8436 12.8945C25.3358 12.4004 25.3358 11.5994 24.8436 11.1053L14.1477 0.370542Z" fill="#220A33"/>
<mask id="mask0_3721_8914" style="mask-type:alpha" maskUnits="userSpaceOnUse" x="1" y="0" width="25" height="24">
<path fill-rule="evenodd" clip-rule="evenodd" d="M13.7021 3.50152C13.4559 3.2545 13.0569 3.2545 12.8108 3.50153L4.78887 11.5526C4.54274 11.7997 4.54274 12.2002 4.78887 12.4472L12.8108 20.4983C13.0569 20.7453 13.4559 20.7453 13.7021 20.4983L21.724 12.4472C21.9701 12.2002 21.9701 11.7997 21.724 11.5526L13.7021 3.50152ZM14.1477 0.370542C13.6555 -0.123514 12.8574 -0.123514 12.3651 0.370542L1.66925 11.1053C1.17698 11.5994 1.17698 12.4004 1.66925 12.8945L12.3651 23.6293C12.8574 24.1233 13.6555 24.1233 14.1477 23.6293L24.8436 12.8945C25.3358 12.4004 25.3358 11.5994 24.8436 11.1053L14.1477 0.370542Z" fill="#220A33"/>
</mask>
<g mask="url(#mask0_3721_8914)">
<g filter="url(#filter0_d_3721_8914)">
<path d="M21.3324 0.370725C21.8246 -0.123331 22.6228 -0.123331 23.115 0.370725L33.8109 11.1055C34.3031 11.5996 34.3031 12.4006 33.8109 12.8947L23.115 23.6295C22.6228 24.1235 21.8246 24.1235 21.3324 23.6295L10.6365 12.8947C10.1443 12.4006 10.1443 11.5996 10.6365 11.1055L21.3324 0.370725Z" fill="black"/>
</g>
</g>
<path d="M21.3324 0.370725C21.8246 -0.123331 22.6228 -0.123331 23.115 0.370725L33.8109 11.1055C34.3031 11.5996 34.3031 12.4006 33.8109 12.8947L23.115 23.6295C22.6228 24.1235 21.8246 24.1235 21.3324 23.6295L10.6365 12.8947C10.1443 12.4006 10.1443 11.5996 10.6365 11.1055L21.3324 0.370725Z" fill="url(#paint0_linear_3721_8914)"/>
<path d="M130.279 18.4651C130.279 18.6097 130.162 18.727 130.017 18.727H127.655C127.51 18.727 127.393 18.6097 127.393 18.4651V4.99257C127.393 4.84787 127.51 4.73058 127.655 4.73058H130.017C130.162 4.73058 130.279 4.84787 130.279 4.99257V18.4651Z" fill="#220A33"/>
<path fill-rule="evenodd" clip-rule="evenodd" d="M119.657 19.01C117.639 19.01 116.467 17.9159 116.467 16.256C116.467 14.596 117.639 13.3888 120.525 13.087L122.393 12.8606C122.845 12.8229 123.147 12.5588 123.147 12.1627C123.147 11.3327 122.43 10.7857 121.393 10.7857C120.336 10.7857 119.571 11.4639 119.365 12.3049C119.329 12.4509 119.193 12.5583 119.044 12.5354L116.749 12.1811C116.613 12.1601 116.515 12.0368 116.537 11.9008C116.832 10.0277 118.658 8.69184 121.317 8.69184C124.147 8.69184 125.977 10.182 125.977 12.5965V18.4651C125.977 18.6097 125.859 18.727 125.715 18.727H123.854C123.737 18.727 123.634 18.6493 123.602 18.5366L123.188 17.0772C123.186 17.0712 123.181 17.0671 123.174 17.0671C123.169 17.0671 123.164 17.0699 123.162 17.0744C122.538 18.2211 121.276 19.01 119.657 19.01ZM120.752 17.0294C122.11 17.0294 123.091 16.0862 123.091 14.7846V14.6816C123.091 14.5253 122.955 14.4038 122.799 14.4212L121.242 14.596C119.639 14.7846 119.092 15.2939 119.092 15.9164C119.092 16.5766 119.789 17.0294 120.752 17.0294Z" fill="#220A33"/>
<path d="M105.681 13.8981C105.681 16.9916 107.775 19.1043 110.887 19.1043C113.548 19.1043 115.574 17.5201 115.947 15.1678C115.969 15.0283 115.869 14.9011 115.73 14.8814L113.568 14.5769C113.422 14.5564 113.289 14.6607 113.259 14.8051C113.018 15.9798 112.106 16.7653 110.981 16.7653C109.586 16.7653 108.567 15.6146 108.548 13.8981C108.548 12.1815 109.491 11.0309 110.793 11.0309C111.698 11.0309 112.491 11.6096 112.771 12.6928C112.81 12.8419 112.959 12.9405 113.108 12.9018L115.214 12.3564C115.348 12.3217 115.432 12.1885 115.399 12.0543C114.894 10.0368 113.059 8.69184 110.717 8.69184C107.718 8.69184 105.681 10.8045 105.681 13.8981Z" fill="#220A33"/>
<path d="M104.51 18.4651C104.51 18.6097 104.392 18.727 104.248 18.727H101.904C101.76 18.727 101.642 18.6097 101.642 18.4651V9.33109C101.642 9.1864 101.76 9.06911 101.904 9.06911H104.248C104.392 9.06911 104.51 9.1864 104.51 9.33109V18.4651Z" fill="#220A33"/>
<path d="M91.1232 15.976C91.3887 17.9694 93.3326 19.0666 95.8338 19.0666C98.6067 19.0666 100.531 17.7839 100.531 15.7844C100.531 14.181 99.4932 13.3133 97.0599 12.8795L95.6263 12.6342C94.4756 12.4267 93.9852 12.1249 93.9852 11.6345C94.004 11.0497 94.6831 10.5782 95.5886 10.5782C96.5079 10.5782 97.22 10.9929 97.4226 11.665C97.466 11.8089 97.5999 11.918 97.7486 11.8963L99.6683 11.6157C99.8113 11.5948 99.9116 11.4615 99.8778 11.3209C99.5042 9.76514 97.8482 8.72956 95.6829 8.72956C93.2118 8.72956 91.533 9.93681 91.533 11.8986C91.533 13.4831 92.4384 14.2942 94.5699 14.6337L96.0035 14.8601C97.3617 15.0864 97.9464 15.426 97.9464 16.0107C97.9464 16.6709 97.0787 17.1425 96.0035 17.1425C94.816 17.1425 93.8797 16.5929 93.6531 15.7086C93.6167 15.5662 93.4879 15.4584 93.3419 15.4748L91.3465 15.6999C91.2079 15.7155 91.1047 15.8377 91.1232 15.976Z" fill="#220A33"/>
<path d="M77.4395 18.465C77.4395 18.6097 77.3222 18.727 77.1775 18.727H74.8154C74.6707 18.727 74.5534 18.6097 74.5534 18.465V9.33109C74.5534 9.1864 74.6707 9.0691 74.8154 9.0691H76.6685C76.789 9.0691 76.8939 9.15125 76.9228 9.26819L77.305 10.8135C77.3064 10.8193 77.3116 10.8234 77.3176 10.8234C77.3229 10.8234 77.3276 10.8202 77.3297 10.8153C77.8599 9.53751 79.1403 8.78615 80.6274 8.78615C82.1328 8.78615 83.1313 9.51826 83.5481 10.8888C83.5499 10.8947 83.5554 10.8988 83.5615 10.8988C83.5667 10.8988 83.5716 10.8958 83.5739 10.8912C84.3102 9.46282 85.591 8.78615 87.0597 8.78615C88.9649 8.78615 90.0967 10.0688 90.0967 12.257V18.465C90.0967 18.6097 89.9794 18.727 89.8347 18.727H87.4726C87.3279 18.727 87.2106 18.6097 87.2106 18.465V12.8983C87.2106 11.842 86.6259 11.2195 85.6638 11.2195C84.4566 11.2195 83.7587 12.1061 83.7587 13.4265V18.465C83.7587 18.6097 83.6414 18.727 83.4967 18.727H81.1534C81.0088 18.727 80.8915 18.6097 80.8915 18.465V12.8983C80.8915 11.842 80.3067 11.2195 79.3258 11.2195C78.1374 11.2195 77.4395 12.1061 77.4395 13.4265V18.465Z" fill="#220A33"/>
<path d="M72.5374 18.727C72.6821 18.727 72.7994 18.6097 72.7994 18.4651V9.33109C72.7994 9.1864 72.6821 9.06911 72.5374 9.06911H70.1942C70.0495 9.06911 69.9322 9.1864 69.9322 9.33109V18.4651C69.9322 18.6097 70.0495 18.727 70.1942 18.727H72.5374Z" fill="#220A33"/>
<path d="M61.6355 18.4651C61.6355 18.6097 61.5182 18.727 61.3735 18.727H59.0114C58.8667 18.727 58.7495 18.6097 58.7495 18.4651V5.49558C58.7495 5.35089 58.8667 5.23359 59.0114 5.23359H61.3735C61.5182 5.23359 61.6355 5.35089 61.6355 5.49558V10.8116C61.6355 10.8181 61.6408 10.8234 61.6473 10.8234C61.6517 10.8234 61.6557 10.821 61.6577 10.8171C62.3561 9.51946 63.5431 8.78616 65.0686 8.78616C67.0492 8.78616 68.2565 10.0123 68.2565 12.0683V18.4651C68.2565 18.6097 68.1392 18.727 67.9945 18.727H65.6324C65.4877 18.727 65.3704 18.6097 65.3704 18.4651V12.9549C65.3704 11.8609 64.7479 11.1818 63.7482 11.1818C62.5032 11.1818 61.6355 12.0683 61.6355 13.3888V18.4651Z" fill="#220A33"/>
<path d="M44.6665 18.727C44.7869 18.727 44.8917 18.645 44.9208 18.5283L47.4322 8.42716C47.4349 8.41642 47.4445 8.40889 47.4556 8.40889C47.4667 8.40889 47.4763 8.41647 47.4789 8.42724L49.9532 18.5274C49.9819 18.6446 50.087 18.727 50.2077 18.727H53.9734C54.0903 18.727 54.1931 18.6496 54.2253 18.5372L57.9232 5.63061C57.9712 5.46321 57.8455 5.29647 57.6714 5.29647H54.941C54.8209 5.29647 54.7162 5.37806 54.6869 5.49448L52.1194 15.6906C52.1167 15.7014 52.107 15.7089 52.0959 15.7089C52.0848 15.7089 52.0752 15.7014 52.0725 15.6906L49.5049 5.49448C49.4756 5.37806 49.3709 5.29647 49.2509 5.29647H45.6233C45.5029 5.29647 45.398 5.37851 45.369 5.49535L42.8387 15.6905C42.836 15.7013 42.8263 15.7089 42.8152 15.7089C42.8041 15.7089 42.7945 15.7014 42.7917 15.6907L40.1684 5.49318C40.1386 5.3774 40.0343 5.29647 39.9147 5.29647H37.2021C37.0279 5.29647 36.9023 5.46321 36.9502 5.63061L40.6482 18.5372C40.6804 18.6496 40.7831 18.727 40.9 18.727H44.6665Z" fill="#220A33"/>
<path d="M70.9908 4.00674C71.1954 3.80212 71.5272 3.80212 71.7318 4.00674L73.2138 5.48877C73.4184 5.6934 73.4184 6.02516 73.2138 6.22979L71.7318 7.71181C71.5272 7.91644 71.1954 7.91644 70.9908 7.71182L69.5087 6.22979C69.3041 6.02516 69.3041 5.6934 69.5087 5.48877L70.9908 4.00674Z" fill="#220A33"/>
<path d="M102.654 4.00674C102.859 3.80212 103.191 3.80212 103.395 4.00674L104.877 5.48877C105.082 5.6934 105.082 6.02516 104.877 6.22979L103.395 7.71182C103.191 7.91644 102.859 7.91644 102.654 7.71182L101.172 6.22979C100.967 6.02516 100.967 5.6934 101.172 5.48877L102.654 4.00674Z" fill="#220A33"/>
<defs>
<filter id="filter0_d_3721_8914" x="6.66733" y="-3.59982" width="31.1127" height="31.1998" filterUnits="userSpaceOnUse" color-interpolation-filters="sRGB">
<feFlood flood-opacity="0" result="BackgroundImageFix"/>
<feColorMatrix in="SourceAlpha" type="matrix" values="0 0 0 0 0 0 0 0 0 0 0 0 0 0 0 0 0 0 127 0" result="hardAlpha"/>
<feOffset/>
<feGaussianBlur stdDeviation="1.8"/>
<feColorMatrix type="matrix" values="0 0 0 0 0 0 0 0 0 0 0 0 0 0 0 0 0 0 1 0"/>
<feBlend mode="normal" in2="BackgroundImageFix" result="effect1_dropShadow_3721_8914"/>
<feBlend mode="normal" in="SourceGraphic" in2="effect1_dropShadow_3721_8914" result="shape"/>
</filter>
<linearGradient id="paint0_linear_3721_8914" x1="10.3001" y1="12" x2="33.7172" y2="14.8335" gradientUnits="userSpaceOnUse">
<stop stop-color="#4433FF"/>
<stop offset="0.489583" stop-color="#AA33FF"/>
<stop offset="1" stop-color="#E36BFF"/>
<stop offset="1" stop-color="#FF33EE"/>
</linearGradient>
</defs>
</svg>
